<?xml version="1.0" standalone="no"?>
<!DOCTYPE svg PUBLIC "-//W3C//DTD SVG 20010904//EN"
 "http://www.w3.org/TR/2001/REC-SVG-20010904/DTD/svg10.dtd">
<svg version="1.0" xmlns="http://www.w3.org/2000/svg"
 width="259.000000pt" height="259.000000pt" viewBox="0 0 259.000000 259.000000"
 preserveAspectRatio="xMidYMid meet">

<g transform="translate(0.000000,259.000000) scale(0.100000,-0.100000)"
fill="#000000" stroke="none">
<path d="M1109 2575 c-435 -71 -776 -321 -972 -710 -150 -300 -173 -683 -61
-997 158 -438 525 -754 982 -845 118 -23 356 -23 472 0 144 28 305 88 415 154
537 324 771 954 571 1541 -148 434 -521 760 -968 847 -117 23 -332 28 -439 10z
m376 -70 c386 -70 695 -288 881 -622 200 -357 195 -840 -12 -1197 -229 -395
-659 -633 -1108 -613 -326 13 -610 139 -833 368 -91 93 -128 142 -191 253
-186 323 -210 736 -63 1077 169 390 505 658 921 733 102 19 307 19 405 1z"/>
<path d="M1075 2453 c-439 -79 -811 -427 -921 -862 -143 -560 132 -1129 661
-1368 411 -186 909 -111 1250 188 205 180 329 403 386 690 19 93 15 327 -5
424 -63 292 -226 547 -465 725 -126 93 -323 175 -498 205 -106 19 -301 18
-408 -2z m265 -550 c12 -15 19 -35 17 -45 -5 -16 -3 -16 24 -3 15 8 44 15 65
15 30 0 44 -8 81 -45 24 -25 53 -45 65 -45 30 0 85 -37 104 -70 11 -17 31 -32
56 -39 87 -27 148 -112 148 -209 0 -48 4 -63 21 -78 61 -53 80 -185 39 -269
-23 -48 -77 -96 -133 -120 -27 -11 -36 -22 -41 -48 -13 -70 -114 -134 -193
-122 -34 5 -43 3 -43 -8 0 -8 -16 -29 -35 -46 -40 -35 -87 -41 -134 -17 -27
14 -28 14 -24 -7 7 -34 -36 -69 -78 -65 -26 2 -37 10 -49 34 -14 29 -17 30
-65 26 -41 -3 -55 0 -78 18 -16 13 -33 33 -38 47 -8 22 -13 23 -56 18 -83 -11
-173 55 -190 136 -4 20 -13 28 -36 33 -43 9 -129 99 -145 152 -26 87 -8 170
52 241 20 24 25 38 20 57 -3 14 -1 48 6 76 15 61 78 131 136 150 22 7 53 29
72 51 19 22 52 45 80 55 26 10 63 35 83 56 31 33 42 38 80 38 25 0 55 -7 67
-16 21 -15 22 -14 22 15 0 20 8 35 22 45 32 23 54 20 78 -11z"/>
<path d="M1274 1879 c-8 -14 21 -43 35 -35 6 4 11 16 11 27 0 21 -34 27 -46 8z"/>
<path d="M1108 1821 c-14 -11 -29 -32 -32 -46 -5 -20 -13 -25 -37 -25 -35 0
-76 -19 -102 -47 -17 -19 -16 -20 23 -32 23 -7 40 -18 40 -26 0 -18 -12 -18
-62 -5 -69 20 -158 -22 -193 -91 -8 -15 -15 -47 -15 -70 0 -38 2 -41 23 -34
33 11 86 11 87 1 1 -6 -17 -15 -40 -22 -22 -7 -47 -18 -56 -24 -13 -11 -12
-14 8 -24 13 -6 27 -21 33 -34 9 -21 14 -22 157 -22 141 0 148 1 148 20 0 15
-7 20 -25 20 -16 0 -25 6 -25 15 0 9 9 15 25 15 18 0 25 5 25 20 0 16 -7 20
-34 20 -18 0 -39 -7 -46 -15 -25 -30 -70 -11 -70 30 0 41 45 60 70 30 21 -25
65 -18 99 16 l31 31 -25 47 c-14 25 -36 51 -48 56 -27 12 -33 47 -12 69 21 21
31 20 56 -5 13 -13 18 -27 14 -40 -4 -12 3 -36 19 -64 14 -24 26 -51 26 -59 0
-12 10 -16 35 -16 l35 0 0 134 c0 126 -2 137 -22 160 -32 36 -76 43 -110 17z
m92 -45 c0 -8 -7 -16 -15 -20 -22 -8 -19 -26 4 -26 25 0 38 -20 20 -31 -21
-13 -36 -11 -53 7 -19 18 -21 55 -4 72 16 16 48 15 48 -2z m-262 -209 c23 -21
29 -51 12 -62 -5 -3 -15 5 -22 20 -15 34 -53 43 -79 19 -25 -23 -50 -5 -28 22
30 36 77 37 117 1z m-12 -152 c12 -49 -55 -88 -86 -50 -10 12 -9 16 2 20 8 3
21 5 29 3 9 -2 15 7 17 25 4 34 29 36 38 2z"/>
<path d="M1405 1829 c-41 -23 -45 -38 -45 -181 l0 -138 30 0 c27 0 30 3 30 33
0 18 -5 38 -11 44 -6 6 -9 23 -7 39 2 24 8 29 35 32 28 3 33 -1 39 -23 4 -15
2 -31 -5 -38 -21 -21 -13 -73 17 -105 l28 -30 47 26 c26 14 47 31 47 37 0 7 8
19 18 27 23 21 58 7 74 -28 11 -23 10 -28 -11 -45 -18 -15 -27 -16 -43 -8 -16
9 -33 5 -84 -18 -68 -30 -85 -59 -39 -65 14 -2 26 -7 26 -13 0 -5 -12 -11 -26
-13 -17 -2 -25 -9 -25 -23 0 -18 8 -19 148 -19 135 0 151 2 167 19 9 11 33 21
54 23 l36 3 -46 27 c-25 15 -60 31 -77 34 -19 4 -32 13 -32 22 0 11 8 13 38 9
20 -3 47 -9 60 -13 20 -6 22 -3 22 27 0 54 -37 116 -85 145 -47 27 -85 32
-152 19 -56 -10 -58 10 -3 33 22 9 38 22 37 27 -7 21 -71 55 -104 55 -26 0
-36 5 -42 23 -19 48 -78 77 -116 56z m155 -108 c0 -5 -10 -15 -22 -23 -28 -19
-18 -48 17 -48 31 0 34 -25 3 -33 -51 -14 -85 43 -58 94 11 19 60 28 60 10z
m252 -166 c8 -19 8 -28 -2 -40 -15 -18 -30 -11 -30 16 0 24 -9 24 -26 2 -16
-23 -28 -11 -20 22 9 35 61 36 78 0z m-92 -108 c0 -13 -5 -28 -11 -34 -16 -16
-2 -33 27 -33 15 0 24 -6 24 -15 0 -20 -48 -20 -70 0 -10 9 -27 17 -39 20 -50
9 -56 32 -8 37 22 2 35 10 42 26 13 29 35 28 35 -1z"/>
<path d="M1268 1702 c4 -184 8 -200 10 -40 1 81 -1 149 -5 151 -5 3 -7 -47 -5
-111z"/>
<path d="M1323 1805 c-3 -9 -3 -18 -1 -21 3 -3 8 4 11 16 6 23 -1 27 -10 5z"/>
<path d="M1070 1660 c0 -5 5 -10 10 -10 6 0 10 5 10 10 0 6 -4 10 -10 10 -5 0
-10 -4 -10 -10z"/>
<path d="M1430 1620 c0 -5 5 -10 10 -10 6 0 10 5 10 10 0 6 -4 10 -10 10 -5 0
-10 -4 -10 -10z"/>
<path d="M1137 1474 c-9 -10 -9 -332 1 -337 4 -3 6 67 4 155 -3 125 0 163 10
169 21 14 282 11 296 -3 17 -17 17 -289 0 -306 -6 -6 -9 -15 -5 -19 21 -20 27
25 25 178 l-3 164 -161 3 c-88 1 -163 -1 -167 -4z"/>
<path d="M1170 1305 l0 -125 130 0 130 0 0 125 0 125 -130 0 -130 0 0 -125z"/>
<path d="M714 1315 c-4 -9 -2 -21 4 -27 15 -15 44 -1 40 19 -4 23 -36 29 -44
8z"/>
<path d="M1840 1305 c0 -18 5 -25 19 -25 20 0 31 17 24 38 -3 6 -13 12 -24 12
-14 0 -19 -7 -19 -25z"/>
<path d="M1921 1304 c-2 -49 -72 -72 -106 -34 -17 18 -31 20 -167 20 -140 0
-148 -1 -148 -19 0 -14 8 -21 25 -23 35 -4 36 -22 3 -26 -20 -2 -28 -9 -28
-23 0 -25 46 -26 88 -2 29 17 31 17 52 -2 28 -25 22 -57 -12 -69 -21 -8 -32
-6 -46 7 -28 26 -61 21 -94 -15 l-30 -32 21 -43 c12 -25 31 -47 45 -53 36 -13
44 -49 16 -72 -12 -10 -26 -18 -30 -18 -18 0 -41 33 -38 54 1 12 -11 50 -27
84 -26 53 -34 62 -57 62 l-28 0 0 -140 c0 -126 2 -142 20 -160 49 -49 122 -28
140 41 9 32 15 39 28 34 9 -4 38 -10 64 -12 93 -10 156 61 144 164 -5 42 -3
53 8 53 8 0 17 -13 21 -30 8 -35 6 -35 53 -11 71 37 112 104 112 183 -1 46
-28 122 -29 82z m-171 -61 c0 -3 -7 -15 -17 -25 -15 -17 -15 -18 4 -18 23 0
38 -26 22 -36 -6 -3 -21 -3 -34 0 -47 12 -41 86 6 86 11 0 19 -3 19 -7z m-110
-227 c0 -6 9 -17 20 -24 11 -7 20 -21 20 -32 0 -24 -8 -25 -30 -5 -15 14 -18
14 -30 0 -7 -8 -19 -15 -26 -15 -19 0 -18 24 1 40 9 7 13 21 10 31 -9 27 3 43
21 28 8 -6 14 -17 14 -23z"/>
<path d="M657 1293 c-15 -55 -16 -78 -6 -116 16 -59 57 -113 104 -137 l40 -20
13 30 c22 53 47 35 31 -23 -8 -30 -6 -45 10 -82 33 -75 84 -94 195 -74 14 3
22 -5 30 -28 16 -47 40 -67 82 -67 28 0 42 7 60 28 23 26 24 35 24 162 l0 134
-35 0 c-33 0 -35 -2 -35 -34 0 -18 7 -39 15 -46 23 -19 18 -48 -10 -66 -24
-16 -27 -16 -45 1 -24 22 -26 48 -5 65 25 20 18 65 -14 98 l-29 29 -46 -25
c-25 -14 -48 -33 -52 -44 -8 -27 -40 -41 -65 -28 -15 9 -19 19 -17 43 3 29 7
32 43 37 58 8 144 51 145 73 0 12 -8 17 -25 17 -16 0 -25 6 -25 15 0 9 9 15
25 15 18 0 25 5 25 20 0 19 -7 20 -148 20 -133 0 -148 -2 -159 -19 -23 -37
-103 -26 -103 14 0 21 -18 27 -23 8z m288 -32 c3 -5 1 -12 -5 -16 -15 -9 -12
-25 5 -25 19 0 20 -26 1 -33 -19 -7 -56 20 -56 42 0 31 40 55 55 32z m-121
-19 c3 -5 -1 -19 -8 -33 -17 -34 -10 -49 26 -49 23 0 29 -4 26 -17 -5 -27 -53
-28 -77 -4 -12 12 -27 21 -35 21 -51 0 -63 37 -13 42 22 2 35 10 42 26 10 22
29 29 39 14z m252 -266 c-3 -14 -7 -29 -8 -33 -1 -5 11 -10 27 -13 37 -7 43
-28 10 -36 -19 -5 -35 -1 -53 13 -15 11 -40 23 -55 27 -37 9 -30 30 12 34 24
3 35 10 42 29 13 34 34 16 25 -21z m119 -96 c14 -44 -27 -83 -70 -66 -27 10
-17 35 13 33 24 -2 27 1 24 26 -4 32 23 38 33 7z"/>
<path d="M935 1090 c-3 -5 -1 -10 4 -10 6 0 11 5 11 10 0 6 -2 10 -4 10 -3 0
-8 -4 -11 -10z"/>
<path d="M1268 825 c-3 -14 -1 -25 3 -25 5 0 9 11 9 25 0 14 -2 25 -4 25 -2 0
-6 -11 -8 -25z"/>
<path d="M1320 810 c0 -11 4 -20 9 -20 5 0 7 9 4 20 -3 11 -7 20 -9 20 -2 0
-4 -9 -4 -20z"/>
<path d="M1280 755 c-15 -18 -5 -35 21 -35 12 0 19 7 19 19 0 24 -25 34 -40
16z"/>
</g>
</svg>
